<?xml version="1.0" encoding="UTF-8"?>
<svg width="120" height="120" viewBox="0 0 120 120" fill="none" xmlns="http://www.w3.org/2000/svg">
  <circle cx="60" cy="60" r="60" fill="#F2F5FF"/>
  <path d="M60 30C71.0457 30 80 38.9543 80 50C80 61.0457 71.0457 70 60 70C48.9543 70 40 61.0457 40 50C40 38.9543 48.9543 30 60 30Z" fill="#0057FF"/>
  <path d="M60 40C65.5228 40 70 44.4772 70 50C70 55.5228 65.5228 60 60 60C54.4772 60 50 55.5228 50 50C50 44.4772 54.4772 40 60 40Z" fill="#FF9900"/>
  <path d="M60 45C62.7614 45 65 47.2386 65 50C65 52.7614 62.7614 55 60 55C57.2386 55 55 52.7614 55 50C55 47.2386 57.2386 45 60 45Z" fill="white"/>
  <path d="M40 75L50 85L40 95" stroke="#0057FF" stroke-width="3" stroke-linecap="round" stroke-linejoin="round"/>
  <path d="M80 75L70 85L80 95" stroke="#0057FF" stroke-width="3" stroke-linecap="round" stroke-linejoin="round"/>
  <path d="M60 75V95" stroke="#0057FF" stroke-width="3" stroke-linecap="round" stroke-linejoin="round"/>
  <path d="M30 85H90" stroke="#FF9900" stroke-width="3" stroke-linecap="round" stroke-linejoin="round"/>
</svg>
