<?xml version="1.0" encoding="UTF-8"?>
<svg width="120" height="120" viewBox="0 0 120 120" fill="none" xmlns="http://www.w3.org/2000/svg">
  <circle cx="60" cy="60" r="60" fill="#F2F5FF"/>
  <rect x="30" y="35" width="60" height="50" rx="4" fill="#0057FF"/>
  <path d="M60 45C65.5228 45 70 40.5228 70 35C70 29.4772 65.5228 25 60 25C54.4772 25 50 29.4772 50 35C50 40.5228 54.4772 45 60 45Z" fill="#FF9900"/>
  <rect x="45" y="55" width="30" height="5" rx="1" fill="white"/>
  <rect x="45" y="65" width="30" height="5" rx="1" fill="white"/>
  <rect x="45" y="75" width="30" height="5" rx="1" fill="white"/>
  <path d="M85 60C85 62.7614 82.7614 65 80 65C77.2386 65 75 62.7614 75 60C75 57.2386 77.2386 55 80 55C82.7614 55 85 57.2386 85 60Z" fill="white"/>
  <path d="M45 60C45 62.7614 42.7614 65 40 65C37.2386 65 35 62.7614 35 60C35 57.2386 37.2386 55 40 55C42.7614 55 45 57.2386 45 60Z" fill="white"/>
</svg>
